<svg width="135" height="182" viewBox="0 0 135 182" fill="none" xmlns="http://www.w3.org/2000/svg">
<path d="M33.2668 56.3982H4.81593C4.81593 23.9189 26.9724 0 70.5299 0C101.247 0 128.439 17.3727 128.439 48.0896C128.439 66.7211 118.871 78.3029 102.254 85.3527V85.8562C125.921 92.6542 134.23 108.264 134.23 128.91C134.23 163.152 108.8 181.532 71.0335 181.532C25.2099 181.532 0.283936 158.116 0.283936 118.084H28.483C28.483 141.499 39.3095 156.606 69.0193 156.606C95.2042 156.606 105.275 146.535 105.275 128.155C105.275 104.236 87.9026 98.9487 70.0264 98.9487H54.4162V75.7851H69.0193C87.1473 75.7851 99.2326 68.2318 99.2326 50.3556C99.2326 36.0042 90.1686 24.926 69.5228 24.926C42.079 24.926 33.2668 39.2773 33.2668 56.3982Z" fill="#DEDFE0"/>
</svg>
